<svg xmlns="http://www.w3.org/2000/svg" viewBox="0 0 96 96" role="img" aria-labelledby="title desc">
  <title id="title">FeedNomi mark</title>
  <desc id="desc">A friendly Nomi face with a small sprout.</desc>
  <rect width="96" height="96" rx="22" fill="#dff5de"/>
  <path d="M44 25c-6-9-5-17 4-23 6 9 5 17-4 23Z" fill="#2f8d53" stroke="#17211d" stroke-width="4" stroke-linejoin="round"/>
  <path d="M53 27c6-10 16-12 27-6-7 9-16 12-27 6Z" fill="#2f8d53" stroke="#17211d" stroke-width="4" stroke-linejoin="round"/>
  <path d="M19 46c0-20 13-34 31-34s31 14 31 34c0 22-13 37-31 37S19 68 19 46Z" fill="#f5c6aa" stroke="#17211d" stroke-width="5"/>
  <path d="M20 45c1-19 15-32 33-31 19 1 30 14 28 33-13-8-24-11-38-10-10 1-17 4-23 8Z" fill="#604269" stroke="#17211d" stroke-width="4" stroke-linejoin="round"/>
  <path d="M32 43c4-3 8-3 12 0M57 43c4-3 8-3 12 0" fill="none" stroke="#17211d" stroke-width="4" stroke-linecap="round"/>
  <path d="M38 55h5M58 55h5" fill="none" stroke="#17211d" stroke-width="5" stroke-linecap="round"/>
  <circle cx="31" cy="62" r="5" fill="#ef8d86"/>
  <circle cx="69" cy="62" r="5" fill="#ef8d86"/>
  <path d="M39 68c6 6 16 6 22 0" fill="none" stroke="#17211d" stroke-width="4" stroke-linecap="round"/>
</svg>
